The Untouchables 1987 720p.Bluray.mkv
*************************************

TiTLE......  The Untouchables
YEAR.......  1987
GENRE......  Crime | Drama | History | Thriller
iMDB RATE..  User Rating: 8.0/10 (82,569 votes)
iMDB URL...  http://www.imdb.com/title/tt0094226/
Awards 1988: Won Oscar. Another 9 wins & 11 nominations
*******************************************************
SUBTITLES:
**********
English, French, German, Spanish, Danish, Dutch, Finnish, 
Norwegian, Romanian, Swedish, Polish, Czech

Video
ID                               : 1
Format                           : AVC
Format/Info                      : Advanced Video Codec
Format profile                   : High@L3.1
Format settings, CABAC           : Yes
Format settings, ReFrames        : 2 frames
Muxing mode                      : Container profile=Unknown@3.1
Codec ID                         : V_MPEG4/ISO/AVC
Duration                         : 1h 59mn
Bit rate                         : 4 496 Kbps
Nominal bit rate                 : 4 620 Kbps
Width                            : 1 280 pixels
Height                           : 544 pixels
Display aspect ratio             : 2.35:1
Frame rate                       : 23.976 fps
Resolution                       : 24 bits
Colorimetry                      : 4:2:0
Scan type                        : Progressive
Bits/(Pixel*Frame)               : 0.269
Stream size                      : 3.75 GiB (73%)
Writing library                  : x264 core 79 r1332 70f8869


Audio
ID                               : 2
Format                           : DTS
Format/Info                      : Digital Theater Systems
Codec ID                         : A_DTS
Duration                         : 1h 59mn
Bit rate mode                    : Constant
Bit rate                         : 1 510 Kbps
Channel(s)                       : 6 channels
Channel positions                : Front: L C R, Surround: L R, LFE
Sampling rate                    : 48.0 KHz
Resolution                       : 24 bits
Stream size                      : 1.26 GiB (25%)
Language                         : English


